<svg width="25" height="18" viewBox="0 0 25 18" fill="none" xmlns="http://www.w3.org/2000/svg">
<g clip-path="url(#clip0_2479_2918)">
<path d="M22.4512 10.7313C22.3404 10.7315 22.2316 10.7001 22.1364 10.6405C22.0412 10.5809 21.963 10.4953 21.9103 10.3927C21.3787 9.36431 20.6109 8.4925 19.6771 7.85688C18.9542 7.36835 18.1474 7.03379 17.3024 6.87213C17.1415 6.84108 16.9989 6.744 16.906 6.60225C16.8131 6.4605 16.7775 6.28568 16.807 6.11628C16.8365 5.94687 16.9287 5.79674 17.0633 5.69891C17.1979 5.60109 17.3639 5.56357 17.5248 5.59463C18.5279 5.78723 19.4855 6.18508 20.3433 6.76568C21.4506 7.51944 22.3611 8.55295 22.992 9.77206C23.0427 9.87085 23.0682 9.9818 23.066 10.0941C23.0639 10.2063 23.0341 10.3161 22.9796 10.4126C22.9251 10.5092 22.8478 10.5891 22.7552 10.6448C22.6625 10.7005 22.5578 10.7299 22.4512 10.7302V10.7313Z" fill="#1769FF"/>
<path d="M23.0641 9.56934C22.9014 9.50973 22.2746 9.58638 21.9854 9.80143C21.4112 10.2273 21.8783 10.6424 21.8399 10.8085C21.8065 10.9544 21.3152 11.2588 21.1827 11.8422C21.0311 12.5097 21.5386 12.9994 21.9379 12.828C22.4222 12.6151 21.9703 12.1829 22.125 11.9679C22.2058 11.855 22.3908 11.8263 22.6223 12.1393C22.9651 12.6002 22.4434 12.6013 22.2837 12.7237C21.7711 13.1133 22.7558 14.1779 23.142 13.5179C23.3523 14.1566 24.0347 13.9757 24.2621 13.3146C24.2935 13.4817 24.5138 13.5434 24.6554 13.4593C25.1053 13.19 25.1093 11.6495 23.9922 10.7659C23.7839 10.6009 23.4675 10.4796 23.3856 10.207C23.3047 9.96537 23.3583 9.67793 23.0641 9.56934Z" fill="white"/>
<path d="M23.5976 13.9773C23.4975 13.975 23.4003 13.9422 23.3175 13.8828C23.2348 13.8235 23.1702 13.7402 23.1315 13.643C23.0824 13.6998 23.0203 13.7426 22.9512 13.7672C22.882 13.7918 22.8081 13.7974 22.7363 13.7835C22.585 13.7455 22.446 13.6659 22.3335 13.5527C22.2211 13.4395 22.1392 13.2969 22.0963 13.1394C22.0716 13.0534 22.0733 12.9614 22.1013 12.8765C22.1293 12.7916 22.182 12.7182 22.252 12.6668C22.3085 12.6301 22.3694 12.6015 22.433 12.5816C22.5341 12.5433 22.6544 12.4996 22.6756 12.424C22.6918 12.3676 22.6584 12.2825 22.5745 12.176C22.4299 11.9801 22.3248 11.9503 22.2712 11.9503C22.2515 11.9498 22.232 11.9544 22.2144 11.9636C22.1967 11.9729 22.1815 11.9866 22.1701 12.0035C22.1297 12.06 22.1549 12.1568 22.1843 12.2675C22.2358 12.4656 22.3066 12.7349 21.9578 12.885C21.8588 12.9235 21.7516 12.9321 21.6482 12.9099C21.5448 12.8877 21.4493 12.8356 21.3725 12.7594C21.2521 12.6434 21.1646 12.4945 21.1198 12.3293C21.075 12.1641 21.0746 11.989 21.1187 11.8236C21.2117 11.4169 21.4675 11.1433 21.6363 10.9624C21.691 10.9125 21.7383 10.8544 21.7769 10.7899C21.7697 10.7383 21.7536 10.6885 21.7293 10.643C21.6394 10.4301 21.4887 10.0851 21.9467 9.74448C22.2409 9.53156 22.8869 9.43256 23.081 9.50495C23.3307 9.5965 23.3651 9.80729 23.3964 9.99253C23.405 10.0571 23.4185 10.1208 23.4368 10.1831C23.4914 10.3577 23.6643 10.4684 23.8321 10.5759C23.8978 10.6185 23.9666 10.6622 24.0262 10.7101C24.3355 10.9494 24.585 11.2643 24.7533 11.6275C24.9217 11.9907 25.0038 12.3916 24.9927 12.7956C24.9715 13.1458 24.8583 13.4067 24.6824 13.512C24.6323 13.54 24.5769 13.5555 24.5203 13.5574C24.4636 13.5592 24.4074 13.5474 24.3558 13.5227C24.3225 13.5067 24.292 13.4847 24.2658 13.4578C24.1213 13.7782 23.8635 13.9773 23.5976 13.9773ZM23.1417 13.445H23.1487C23.1602 13.4463 23.1712 13.4509 23.1803 13.4585C23.1894 13.466 23.1964 13.4761 23.2003 13.4876C23.2741 13.7154 23.4146 13.841 23.5935 13.8421C23.8382 13.8421 24.0869 13.6132 24.2001 13.2832C24.2043 13.2695 24.2128 13.2578 24.2242 13.25C24.2356 13.2423 24.2493 13.2389 24.2628 13.2406C24.2762 13.2417 24.2889 13.2474 24.2989 13.2568C24.309 13.2662 24.3158 13.2789 24.3184 13.2927C24.3239 13.3166 24.3347 13.3387 24.3501 13.3573C24.3654 13.3758 24.3847 13.3902 24.4064 13.3992C24.4396 13.4161 24.4761 13.4249 24.513 13.4249C24.5499 13.4249 24.5864 13.4161 24.6197 13.3992C24.7572 13.3172 24.8502 13.0883 24.8694 12.7871C24.879 12.4044 24.8004 12.0249 24.6404 11.6812C24.4803 11.3375 24.2436 11.0397 23.9504 10.8133C23.8912 10.7678 23.8298 10.7255 23.7664 10.6866C23.5895 10.5727 23.3883 10.4439 23.3186 10.2246C23.2985 10.1549 23.2833 10.0837 23.2731 10.0117C23.2438 9.83284 23.2205 9.69232 23.0395 9.62418C22.9041 9.57415 22.3005 9.63696 22.0165 9.84775C21.6424 10.1256 21.7516 10.38 21.8405 10.5855C21.8816 10.6545 21.9007 10.7354 21.8951 10.8165C21.8563 10.9078 21.7974 10.9881 21.7233 11.0507C21.5635 11.2211 21.3189 11.4766 21.238 11.8502C21.1991 11.9926 21.1986 12.1435 21.2364 12.2862C21.2743 12.4289 21.349 12.5577 21.4523 12.6582C21.5117 12.7192 21.586 12.7614 21.6669 12.7802C21.7478 12.799 21.8321 12.7936 21.9103 12.7647C22.1459 12.6636 22.1226 12.5231 22.064 12.3027C22.0296 12.1696 21.9932 12.0333 22.071 11.9247C22.0935 11.8921 22.123 11.8654 22.1571 11.8469C22.1911 11.8284 22.2288 11.8186 22.2672 11.8183C22.3561 11.8183 22.4967 11.8662 22.6645 12.094C22.7726 12.2388 22.8111 12.358 22.7828 12.4581C22.7443 12.5976 22.5947 12.6529 22.4633 12.7019C22.4107 12.7181 22.3601 12.741 22.3127 12.77C22.2635 12.8072 22.2267 12.8596 22.2075 12.92C22.1883 12.9804 22.1876 13.0456 22.2055 13.1064C22.2419 13.2393 22.3109 13.3596 22.4055 13.4555C22.5 13.5514 22.6169 13.6193 22.7443 13.6526C22.8111 13.6659 22.8802 13.6561 22.9413 13.6247C23.0023 13.5932 23.0521 13.5417 23.083 13.478C23.0895 13.4695 23.0979 13.4629 23.1074 13.4586C23.1169 13.4544 23.1273 13.4526 23.1376 13.4535L23.1417 13.445Z" fill="#1769FF"/>
<path d="M22.4306 10.3767C22.417 10.3767 22.4038 10.3719 22.3931 10.3631C22.3823 10.3544 22.3746 10.3421 22.3712 10.3283C22.3677 10.3145 22.3687 10.2998 22.374 10.2866C22.3792 10.2734 22.3885 10.2624 22.4003 10.2553C22.5673 10.1578 22.7616 10.125 22.9492 10.1627C22.9579 10.1634 22.9663 10.1661 22.974 10.1704C22.9816 10.1748 22.9883 10.1808 22.9935 10.1881C22.9988 10.1954 23.0026 10.2037 23.0046 10.2127C23.0065 10.2216 23.0067 10.2308 23.0051 10.2398C23.0034 10.2488 23 10.2573 22.995 10.2648C22.99 10.2723 22.9835 10.2786 22.9761 10.2833C22.9686 10.288 22.9603 10.2909 22.9516 10.292C22.943 10.293 22.9343 10.2922 22.926 10.2894C22.767 10.2578 22.6025 10.2857 22.4609 10.3682C22.4516 10.3735 22.4412 10.3764 22.4306 10.3767Z" fill="#1769FF"/>
<path d="M23.1375 13.5826C23.1248 13.5828 23.1124 13.5787 23.1021 13.5709C23.0889 13.5608 23.08 13.5458 23.0771 13.5289C23.0743 13.512 23.0778 13.4946 23.0869 13.4804C23.4084 12.9971 23.3771 12.6532 23.2345 12.0347C23.2312 12.0181 23.234 12.0007 23.2425 11.9862C23.251 11.9717 23.2644 11.9613 23.28 11.957C23.2879 11.9549 23.2962 11.9545 23.3042 11.9558C23.3122 11.9571 23.32 11.9601 23.3269 11.9645C23.3339 11.969 23.3399 11.9748 23.3447 11.9818C23.3495 11.9887 23.353 11.9966 23.3549 12.0049C23.4883 12.5883 23.55 13.0109 23.188 13.5549C23.1824 13.5635 23.1748 13.5705 23.166 13.5753C23.1572 13.5801 23.1474 13.5826 23.1375 13.5826Z" fill="#1769FF"/>
<path d="M24.2622 13.3799H24.2501C24.2341 13.3763 24.2201 13.3663 24.211 13.3519C24.2019 13.3376 24.1985 13.3201 24.2015 13.3032C24.3117 12.755 24.2217 12.2919 23.9356 11.9289C23.9295 11.9225 23.9246 11.9149 23.9214 11.9065C23.9182 11.898 23.9167 11.889 23.917 11.8799C23.9174 11.8708 23.9195 11.8619 23.9233 11.8538C23.9271 11.8456 23.9324 11.8384 23.939 11.8326C23.9456 11.8267 23.9533 11.8224 23.9616 11.8199C23.9699 11.8174 23.9786 11.8167 23.9871 11.818C23.9957 11.8192 24.0039 11.8224 24.0112 11.8272C24.0185 11.832 24.0248 11.8383 24.0297 11.8458C24.342 12.2418 24.4401 12.7411 24.3228 13.3298C24.3195 13.3441 24.3117 13.3568 24.3007 13.3658C24.2897 13.3749 24.2761 13.3798 24.2622 13.3799Z" fill="#1769FF"/>
<path d="M1.55371 8.98618C1.55371 7.52983 1.77072 6.24204 2.20476 5.12281C2.5896 4.07402 3.18571 3.12552 3.95205 2.34261C4.71838 1.5597 5.63674 0.960979 6.64389 0.58767C8.78774 -0.19589 11.1198 -0.19589 13.2636 0.58767C14.2567 0.963006 15.1661 1.5489 15.9356 2.30911C16.7194 3.09956 17.3313 4.05949 17.7291 5.12281C18.1638 6.24275 18.3811 7.53054 18.3811 8.98618C18.3811 10.4418 18.1681 11.7342 17.7422 12.8634C17.3558 13.9299 16.7527 14.8946 15.975 15.6899C15.2083 16.4541 14.2981 17.0408 13.3031 17.4124C12.2278 17.8126 11.0942 18.0115 9.95376 18C8.81211 18.0114 7.67776 17.8074 6.60446 17.3975C5.61041 17.0196 4.70409 16.4234 3.94564 15.6484C3.17837 14.8463 2.58035 13.8828 2.19062 12.8208C1.76602 11.7009 1.55371 10.4227 1.55371 8.98618ZM6.33857 8.98618C6.33857 10.6845 6.66647 11.9535 7.32225 12.7931C7.97802 13.6327 8.85419 14.0525 9.95074 14.0525C11.0668 14.0525 11.9531 13.6327 12.6096 12.7931C13.266 11.9535 13.5939 10.6845 13.5932 8.98618C13.5932 7.30627 13.2694 6.04615 12.6217 5.20584C11.974 4.36553 11.0924 3.94608 9.97702 3.9475C8.87844 3.9475 7.99689 4.36269 7.33236 5.19307C6.66782 6.02344 6.33655 7.28781 6.33857 8.98618Z" fill="#1769FF"/>
<path d="M2.05664 9.02408C2.05664 8.84696 2.10654 8.67382 2.2 8.52657C2.29347 8.37931 2.42631 8.26455 2.58173 8.19682C2.73715 8.12909 2.90815 8.11142 3.0731 8.14605C3.23806 8.18069 3.38955 8.26606 3.50841 8.39138C3.62728 8.5167 3.70817 8.67633 3.74086 8.85007C3.77356 9.02382 3.75658 9.20387 3.69207 9.36745C3.62756 9.53103 3.51843 9.67078 3.37848 9.76903C3.23853 9.86728 3.07405 9.91961 2.90585 9.9194C2.79424 9.9194 2.68374 9.89623 2.58064 9.85123C2.47755 9.80622 2.38388 9.74025 2.30501 9.6571C2.22614 9.57395 2.16362 9.47525 2.121 9.36663C2.07838 9.25801 2.05651 9.14161 2.05664 9.02408ZM3.3992 13.4357C3.23104 13.4357 3.06666 13.3832 2.92684 13.2848C2.78702 13.1865 2.67806 13.0466 2.61371 12.883C2.54935 12.7194 2.53251 12.5394 2.56532 12.3657C2.59812 12.1921 2.6791 12.0325 2.798 11.9073C2.91691 11.7821 3.0684 11.6968 3.23332 11.6623C3.39825 11.6277 3.56921 11.6455 3.72456 11.7132C3.87992 11.781 4.01271 11.8958 4.10613 12.043C4.19955 12.1902 4.24942 12.3633 4.24942 12.5404C4.24955 12.658 4.22764 12.7745 4.18496 12.8832C4.14228 12.9919 4.07966 13.0906 4.00069 13.1738C3.92171 13.257 3.82794 13.3229 3.72472 13.3679C3.62151 13.4128 3.51089 13.4359 3.3992 13.4357ZM3.3992 6.35836C3.23043 6.35879 3.06533 6.30643 2.92485 6.20793C2.78437 6.10943 2.67483 5.96923 2.6101 5.80509C2.54538 5.64096 2.52839 5.46028 2.56129 5.28597C2.5942 5.11166 2.67551 4.95155 2.79492 4.82596C2.91433 4.70036 3.06646 4.61493 3.23203 4.58049C3.3976 4.54605 3.56917 4.56416 3.72496 4.63251C3.88075 4.70086 4.01375 4.81638 4.10712 4.96443C4.20048 5.11248 4.25002 5.28639 4.24942 5.46411C4.24942 5.58164 4.22742 5.69801 4.18468 5.80657C4.14194 5.91514 4.07929 6.01377 4.00033 6.09682C3.92137 6.17987 3.82764 6.24572 3.72449 6.2906C3.62134 6.33548 3.5108 6.3585 3.3992 6.35836Z" fill="#0A4EEB" stroke="#0B51DB" stroke-width="0.99" stroke-miterlimit="10"/>
<path d="M2.86427 4.76074H1.39332C1.00081 4.76074 0.682617 5.09581 0.682617 5.50915V5.51021C0.682617 5.92354 1.00081 6.25861 1.39332 6.25861H2.86427C3.25678 6.25861 3.57497 5.92354 3.57497 5.51021V5.50915C3.57497 5.09581 3.25678 4.76074 2.86427 4.76074Z" fill="#88C9FF"/>
<path d="M2.86427 11.79H1.39332C1.00081 11.79 0.682617 12.1251 0.682617 12.5384V12.5395C0.682617 12.9528 1.00081 13.2879 1.39332 13.2879H2.86427C3.25678 13.2879 3.57497 12.9528 3.57497 12.5395V12.5384C3.57497 12.1251 3.25678 11.79 2.86427 11.79Z" fill="#88C9FF"/>
<path d="M2.18165 8.27637H0.710704C0.318193 8.27637 0 8.61144 0 9.02477V9.02584C0 9.43917 0.318193 9.77424 0.710704 9.77424H2.18165C2.57416 9.77424 2.89235 9.43917 2.89235 9.02584V9.02477C2.89235 8.61144 2.57416 8.27637 2.18165 8.27637Z" fill="#88C9FF"/>
<path d="M18.6893 5.15329L18.4871 12.3403C18.4866 12.3904 18.4954 12.44 18.5131 12.4865C18.5308 12.5329 18.557 12.5753 18.5903 12.611C18.6235 12.6468 18.6631 12.6754 18.7068 12.695C18.7505 12.7147 18.7975 12.7251 18.845 12.7257L20.2745 12.7704C20.322 12.7708 20.3689 12.7811 20.4126 12.8006C20.4563 12.8202 20.4959 12.8486 20.5292 12.8843C20.5624 12.92 20.5886 12.9623 20.6063 13.0087C20.6241 13.0551 20.6329 13.1047 20.6324 13.1547C20.6274 13.2556 20.5848 13.3504 20.5138 13.4184C20.4428 13.4864 20.3491 13.5221 20.2532 13.5177L18.8238 13.473C18.7763 13.4706 18.729 13.478 18.6843 13.4949C18.6396 13.5118 18.5985 13.5378 18.5634 13.5714C18.5283 13.605 18.4998 13.6456 18.4796 13.6908C18.4594 13.7361 18.4479 13.785 18.4457 13.835L18.4366 14.165C18.4359 14.215 18.4446 14.2646 18.4622 14.3111C18.4798 14.3575 18.5059 14.3999 18.539 14.4357C18.5722 14.4715 18.6117 14.5 18.6554 14.5197C18.699 14.5394 18.7459 14.5498 18.7934 14.5504L20.6132 14.6068C20.709 14.6114 20.8027 14.5758 20.8736 14.5077C20.9445 14.4396 20.9868 14.3447 20.9913 14.2438L21.243 5.23207C21.2436 5.18198 21.2349 5.13225 21.2173 5.08573C21.1996 5.03921 21.1734 4.99682 21.1401 4.96101C21.1069 4.92519 21.0672 4.89666 21.0235 4.87704C20.9797 4.85742 20.9327 4.8471 20.8851 4.84669L19.0654 4.79133C18.97 4.78727 18.877 4.82303 18.8066 4.89082C18.7362 4.9586 18.694 5.05293 18.6893 5.15329Z" fill="#88C9FF"/>
<path d="M21.2783 3.99796C21.2834 3.83721 21.2096 3.70413 21.1135 3.70094L18.9046 3.63281C18.8035 3.63281 18.7277 3.75737 18.7236 3.91919C18.7236 4.07994 18.7924 4.21301 18.8884 4.21514L21.0974 4.28434C21.1934 4.28966 21.2743 4.15872 21.2783 3.99796Z" fill="#0A4EEB"/>
<path d="M19.4555 1.64797C19.0788 1.63634 18.7645 1.94849 18.7534 2.34519C18.7424 2.74189 19.0388 3.07291 19.4155 3.08454L20.6069 3.12134C20.9836 3.13298 21.298 2.82082 21.309 2.42412C21.3201 2.02742 21.0236 1.6964 20.6469 1.68477L19.4555 1.64797Z" fill="#1769FF"/>
<path d="M20.6371 15.234C20.6747 15.2341 20.7115 15.2447 20.7439 15.2649C20.7762 15.2851 20.8027 15.3141 20.8207 15.3489C20.8387 15.3836 20.8475 15.4228 20.8461 15.4624C20.8448 15.5019 20.8333 15.5404 20.813 15.5736L20.3702 16.3284L19.9284 17.0832C19.9092 17.1163 19.882 17.1435 19.8497 17.162C19.8173 17.1805 19.7808 17.1897 19.744 17.1886C19.7072 17.1875 19.6713 17.1762 19.6399 17.1559C19.6086 17.1355 19.5829 17.1068 19.5655 17.0726L19.1611 16.2922L18.7567 15.5108C18.7405 15.4769 18.7329 15.4391 18.7346 15.4012C18.7363 15.3633 18.7474 15.3264 18.7666 15.2943C18.7858 15.2622 18.8126 15.2358 18.8443 15.2178C18.8761 15.1998 18.9117 15.1907 18.9478 15.1914L19.7899 15.217L20.6371 15.234Z" fill="#1769FF"/>
</g>
<defs>
<clipPath id="clip0_2479_2918">
<rect width="25" height="18" fill="white"/>
</clipPath>
</defs>
</svg>
